
<h3>Each tile of the Wildebeest has either a question or an answer noted on it. Each tile has a match.</h3>
<p>Match all the questions with their answers by memorizing the placements of the tiles to win the game!</p>

<svg class='match-beest' width="640" height="480" xmlns="http://www.w3.org/2000/svg" xmlns:svg="http://www.w3.org/2000/svg">
 <!-- Created with SVG-edit - http://svg-edit.googlecode.com/ -->
 <g>
  <path data-match-id="turkey" data-id='tile_1' class='match-beest__tile' d="m305.94713,122.03477c74.5018,-7.52543 83.53232,-8.27798 83.11784,-8.40071c-0.41449,-0.12273 -28.18216,50.54314 -28.59665,50.42041c-0.41449,-0.12273 -54.52118,-42.0197 -54.52118,-42.0197z" />
  <text data-tile-id='tile_1' class='match-beest__text' x="50%" y="50%" > 
    rescue Thanksgiving turkey tragedies 
  </text>
  <path data-match-id="band" data-id='tile_2' class='match-beest__tile' d="m284.12337,137.08564l14.63638,-14.42106l14.29833,11.28815l-28.93471,3.1329z" />
  <text data-tile-id='tile_2' class='match-beest__text' x="50%" y="50%" > 
    band website design and development
  </text>
  <path data-match-id='sentiment' data-id='tile_3' class='match-beest__tile' d="m247.24874,121.28223l6.3584,35.24681l37.62717,-34.617l-43.98558,-0.62981z" />
  <text data-tile-id='tile_3' class='match-beest__text' x="50%" y="50%" > 
    measuring sentiment analysis for brand safety
  </text>
  <path data-match-id='disney' data-id='tile_4' class='match-beest__tile' d="m244.23857,126.55003l1.0906,11.91797l-24.08139,15.05087l22.99079,-26.96883z" />
  <text data-tile-id='tile_4' class='match-beest__text' x="50%" y="50%" > 
    match a character based on your spotify history
  </text>
  <path data-match-id='logo' data-id="tile_5" class='match-beest__tile' d="m220.15718,141.6009l-10.19755,17.93831l-11.28815,-6.02035l21.48571,-11.91797z"/>
  <text data-tile-id='tile_5' class='match-beest__text' x="50%" y="50%" > 
    HTML Newsletter Customization for Hulu's Broad City
  </text>
  <path data-match-id='disney' data-id='tile_6' class='match-beest__tile' d="m197.58087,160.41449l13.88384,7.4027l-6.77289,36.87463l-7.11095,-44.27733z" />
  <text data-tile-id='tile_6' class='match-beest__text' x="50%" y="50%" > 
    Movie Promotion with Disney
  </text>
  <path data-match-id='tinybeest' data-id="tile_7" class='match-beest__tile' d="m196.82833,187.50605l4.10077,29.97901l-12.0407,0l7.93992,-29.97901z"/>
  <text data-tile-id='tile_7' class='match-beest__text' x="50%" y="50%" > 
    bulk image recizing and compression
  </text>
  <path data-match-id='selfie' data-id="tile_8" class='match-beest__tile--static' d="m191.56053,221.37051l8.61603,1.38236l1.50509,15.80341l-10.12112,-17.18577z"/>
  <text data-tile-id='tile_8' class='match-beest__text' x="50%" y="50%" > 
    use a selfie to age-gate content
  </text>
  <path data-match-id='emergency' data-id="tile_9" class='match-beest__tile' d="m220.90972,160.41449l25.92453,-14.42106l17.3085,60.20348l-43.23303,-45.78242z"/>
  <text data-tile-id='tile_9' class='match-beest__text' x="50%" y="50%" > 
    UNA
  </text>
  <path data-match-id='emergency' data-id="tile_10" class='match-beest__tile' d="m221.66226,168.69246l41.72795,42.77225l-21.07122,9.78306l-20.65673,-52.55531z" />
  <text data-tile-id='tile_10' class='match-beest__text' x="50%" y="50%" > 
    emergency alert system
  </text>
  <path data-match-id='eyebrows' data-id="tile_11" class='match-beest__tile' d="m257.78435,164.1772l19.90418,-19.68886l15.80341,51.17296l-35.7076,-31.48409z" />
  <text data-tile-id='tile_11' class='match-beest__text' x="50%" y="50%" > 
    Benefit Cosmetics - face detection
  </text>
  <path data-match-id='logo' data-id="tile_12" class='match-beest__tile' d="m259.28944,174.71281l30.43979,25.46375l-18.81359,9.03052l-11.62621,-34.49427z" />
  <text data-tile-id='tile_12' class='match-beest__text' x="50%" y="50%" > 
    display a logo even when images are disabled
  </text>
  <path data-match-id='sentiment' data-id="tile_13" class='match-beest__tile' d="m284.87592,148.37379l14.63638,51.80277l24.08139,-12.79324l-38.71777,-39.00953z" />
  <text data-tile-id='tile_13' class='match-beest__text' x="50%" y="50%" > 
    Comment Analysis for YouTube Channels
  </text>
  <path data-match-id='turkey' data-id="tile_14" class='match-beest__tile' d="m286.381,143.10599l28.93471,-3.1329l10.53561,43.64752l-39.47031,-40.51462z" />
  <text data-tile-id='tile_14' class='match-beest__text' x="50%" y="50%" > 
    Smithfield Hambulence
  </text>
  <path data-match-id='college' data-id="tile_15" class='match-beest__tile' d="m324.76072,143.10599l32.69742,27.72138l-24.83393,12.79324l-7.86349,-40.51462z" />
  <text data-tile-id='tile_15' class='match-beest__text' x="50%" y="50%" > 
    Collage Abacus
  </text>
    <path data-match-id='tweet' data-id="tile_16" class='match-beest__tile' d="m390.232,121.28223l-24.49588,45.02988l43.64752,16.55596l-19.15164,-61.58583z" />
    <text data-tile-id='tile_16' class='match-beest__text' x="50%" y="50%" > 
      real time sentiment analysis for Twitter
    </text>
  <path data-match-id='eyebrows' data-id="tile_17" class='match-beest__tile' d="m395.4998,119.77714l16.89401,54.81294l14.29833,-38.37972l-31.19234,-16.43323z" />
  <text data-tile-id='tile_17' class='match-beest__text' x="50%" y="50%" > 
    finds user's eyebrows
  </text>
  <path data-match-id='groceries' data-id="tile_18" class='match-beest__tile' d="m397.00489,112.25171l31.94488,17.93831l8.27798,-23.32885l-40.22286,5.39053z" />
  <text data-tile-id='tile_18' class='match-beest__text' x="50%" y="50%" > 
    Los Angeles Area Chamber of Commerce - machine learning employment quiz
  </text>
  <path data-match-id='tweet' data-id="tile_19" class='match-beest__tile' d="m442.91004,106.9839l19.15164,8.15525l-27.09156,12.0407l7.93992,-20.19594z" />
  <text data-tile-id='tile_19' class='match-beest__text' x="50%" y="50%" > 
    Better Status
  </text>
  <path data-match-id='band' data-id="tile_20" class='match-beest__tile' d="m470.75415,110.74662l15.38892,-5.39053l-24.08139,-36.87463l8.69247,42.26516z" />
  <text data-tile-id='tile_20' class='match-beest__text' x="50%" y="50%" > 
    Wolfie's Just Fine
  </text>
  <path data-match-id='tinybeest' data-id="tile_21" class='match-beest__tile' d="m459.466,120.52968l27.42962,-10.65834l-12.0407,21.82376l-15.38892,-11.16542z" />
  <text data-tile-id='tile_21' class='match-beest__text' x="50%" y="50%" > 
    Tinybeest
  </text>
  <path data-match-id='ad' data-id="tile_22" class='match-beest__tile' d="m439.89987,128.05512l14.63638,-5.39053l14.29833,9.03052l-28.93471,-3.63999z" />
  <text data-tile-id='tile_22' class='match-beest__text' x="50%" y="50%" > 
    responsive ad integration with HTML5
  </text>
  <path data-match-id='data-vis' data-id="tile_23" class='match-beest__tile' d="m432.37443,134.07547l4.10077,8.90779l-15.05087,19.56613l10.9501,-28.47392z" />
  <text data-tile-id='tile_23' class='match-beest__text' x="50%" y="50%" > 
    analytics-driven campaign manager for publishers
  </text>
  <path data-match-id='iffy' data-id="tile_24" class='match-beest__tile' d="m437.64224,132.57038l36.46014,2.88744l-1.50509,57.94585l-34.95505,-60.83329z" />
  <text data-tile-id='tile_24' class='match-beest__text' x="50%" y="50%" > 
    mood-based recommendations for local bars and restaurants
  </text>
  <path data-match-id='am' data-id="tile_25" class='match-beest__tile' d="m479.78467,140.84836l19.90418,44.27733l-24.08139,10.53561l4.17721,-54.81294z" />
  <text data-tile-id='tile_25' class='match-beest__text' x="50%" y="50%" > 
    tablet-first responsive video portal
  </text>
  <path data-match-id='am' data-id="tile_26" class='match-beest__tile' d="m438.91564,147.10844l21.32532,33.61445l-40.96386,-9.63855l19.63853,-23.97589z" />
  <text data-tile-id='tile_26' class='match-beest__text' x="50%" y="50%" > 
    FM in the AM
  </text>
  <path data-match-id='data-vis' data-id="tile_27" class='match-beest__tile' d="m358.19275,177.22893l-1.56624,34.81927l-45.78313,-9.63855l47.34938,-25.18071z" />
  <text data-tile-id='tile_27' class='match-beest__text' x="50%" y="50%" > 
    Data Visualization Dashboard for HYFN8
  </text>
  <path data-match-id='ad' data-id="tile_28" class='match-beest__tile' d="m365.42167,174.81929l40.60243,13.13252l-43.37349,16.86747l2.77106,-29.99999z" />
  <text data-tile-id='tile_28' class='match-beest__text' x="50%" y="50%" > 
    Modular Ad Unit
  </text>
  <path data-match-id='italic' data-id="tile_29" class='match-beest__tile' d="m418.43371,174.81929l27.34942,7.10842l-31.3253,27.71084l3.97588,-34.81927z" />
  <text data-tile-id='tile_29' class='match-beest__text' x="50%" y="50%" > 
    SEO-focused build for design studio
  </text>
  <path data-match-id='selfie' data-id="tile_30" class='match-beest__tile' d="m366.62648,209.75905l45.42171,-18.19278l-4.81928,20.48193l-40.60243,-2.28915z" />
  <text data-tile-id='tile_30' class='match-beest__text' x="50%" y="50%" > 
    Face Detection Prototype
  </text>
  <path data-match-id='iffy' data-id="tile_31" class='match-beest__tile' d="m363.01203,215.78314l41.80725,3.49397l-28.91566,40.96386l-12.89159,-44.45782z" />
  <text data-tile-id='tile_31' class='match-beest__text' x="50%" y="50%" > 
    Iffy
  </text>
  <path data-match-id='text' data-id="tile_32" class='match-beest__tile' d="m388.31323,253.13254l5.66267,32.40963l-24.09639,-3.61446l18.43371,-28.79517z" />
  <text data-tile-id='tile_32' class='match-beest__text' x="50%" y="50%" > 
    Teckst
  </text>
  <path data-match-id='text' data-id="tile_33" class='match-beest__tile' d="m242.5301,226.62652l18.91569,-8.55423l-8.43373,36.14458l-10.48195,-27.59035z" />
  <text data-tile-id='tile_33' class='match-beest__text' x="50%" y="50%" > 
    customer support via SMS
  </text>
  <path data-match-id='groceries' data-id="tile_34" class='match-beest__tile' d="m235.30118,219.3976l10.48195,33.61445l-18.07229,-15.66265l7.59034,-17.9518z" />
  <text data-tile-id='tile_34' class='match-beest__text' x="50%" y="50%" > 
    help foster children find their perfect job in the retail grocery industry. 
  </text>
  <path data-match-id='college' data-id="tile_35" class='match-beest__tile' d="m230.4819,245.90363l18.91569,16.74698l-7.22892,16.86747l-11.68677,-33.61445z" />
  <text data-tile-id='tile_35' class='match-beest__text' x="50%" y="50%" > 
    calculate the true expense of college
  </text>
  <path data-match-id='italic' data-id="tile_36" class='match-beest__tile' d="m252.16865,267.59037l6.86749,17.9518l-12.04819,-4.81928l5.1807,-13.13252z" />
  <text data-tile-id='tile_36' class='match-beest__text' x="50%" y="50%" > 
    ITAL/C - WordPress Portfolio Site
  </text>
  <path data-id="tile_37" class='match-beest__tile--static' d="m340.12046,108.55423l5.66267,-7.34941l8.43373,6.0241l-14.09641,1.32531z" />
  <path data-id="tile_38" class='match-beest__tile--static' d="m363.37347,107.22892l5.30123,-7.22892l7.22892,6.0241l-12.53014,1.20483z" />
  <path data-id="tile_39" class='match-beest__tile--static' d="m386.26504,106.02411l5.30123,-8.43374l13.25301,7.22892l-18.55424,1.20483z" />
  <path data-id="tile_40" class='match-beest__tile--static' d="m415.1807,104.81929l4.09641,-8.43374l13.25301,6.0241l-17.34942,2.40965z" />
  <path data-id="tile_41" class='match-beest__tile--static' d="m429.63853,201.20483l6.50604,-4.81929l-3.61446,12.04819l-2.89159,-7.22891z" />
  <path data-id="tile_42" class='match-beest__tile--static' d="m441.68673,191.56628l6.50604,-4.81929l-2.40964,14.45783l-4.09641,-9.63854z" />
  <path data-id="tile_43" class='match-beest__tile--static' d="m454.93974,184.33736l8.91568,6.02409l-4.81928,7.22892l-4.09641,-13.253z" />
 </g>
</svg>